<!-- icon666.com - MILLIONS OF FREE VECTOR ICONS --><svg id="Capa_1" enable-background="new 0 0 512 512" viewBox="0 0 512 512" xmlns="http://www.w3.org/2000/svg"><g><path d="m395.389 274.398c-5.875-2.817-12.45-4.398-19.389-4.398-24.813 0-45 20.187-45 45 0 6.939 1.581 13.514 4.398 19.389z"></path><path d="m376 360c24.813 0 45-20.187 45-45 0-6.939-1.581-13.514-4.398-19.389l-59.992 59.992c5.876 2.816 12.451 4.397 19.39 4.397z"></path><path d="m421 60v15c0 24.813-20.187 45-45 45v-30c8.271 0 15-6.729 15-15v-15h-30v-15c0-8.271 6.729-15 15-15s15 6.729 15 15v15h30v-15c0-24.813-20.187-45-45-45s-45 20.187-45 45v15h-30v15c0 24.813-20.187 45-45 45v-30c8.271 0 15-6.729 15-15v-15h-30v-15c0-8.271 6.729-15 15-15s15 6.729 15 15v15h30v-15c0-24.813-20.187-45-45-45s-45 20.187-45 45v15h-30v15c0 24.813-20.187 45-45 45v-30c8.271 0 15-6.729 15-15v-15h-30v-15c0-8.271 6.729-15 15-15s15 6.729 15 15v15h30v-15c0-24.813-20.187-45-45-45s-45 20.187-45 45v15h-91v90h512v-90z"></path><path d="m0 512h512v-332h-512zm391-62h-30v-30h30zm60 0h-30v-30h30zm-75-210c41.355 0 75 33.645 75 75s-33.645 75-75 75-75-33.645-75-75 33.645-75 75-75zm-75 180h30v30h-30zm-60-180h30v30h-30zm0 60h30v30h-30zm0 60h30v30h-30zm0 60h30v30h-30zm-60-180h30v30h-30zm0 60h30v30h-30zm0 60h30v30h-30zm0 60h30v30h-30zm-60-180h30v30h-30zm0 60h30v30h-30zm0 60h30v30h-30zm0 60h30v30h-30zm-60-180h30v30h-30zm0 60h30v30h-30zm0 60h30v30h-30zm0 60h30v30h-30z"></path></g></svg>