<!-- icon666.com - MILLIONS OF FREE VECTOR ICONS --><svg viewBox="0 0 64 64" xmlns="http://www.w3.org/2000/svg"><path d="m18 29a3 3 0 0 1 2.816 2h12.368a2.982 2.982 0 0 1 5.632 0h1.184v-2.587l-1.406-1.413h-24.594v4h1.184a3 3 0 0 1 2.816-2z"></path><circle cx="36" cy="32" r="1"></circle><path d="m25 21h-3.764a.994.994 0 0 0 -.894.553l-1.724 3.447h6.382z"></path><path d="m32.762 21.445a1 1 0 0 0 -.832-.445h-4.93v4h8.132z"></path><circle cx="18" cy="32" r="1"></circle><path d="m27 45a18 18 0 1 0 -18-18 18.021 18.021 0 0 0 18 18zm-5-5h-2v-2h2zm7-1h-2v-2h2zm5-26h2v2h-2zm-7 2h2v2h-2zm-7-2h2v2h-2zm-6 12h2.382l2.171-4.342a2.983 2.983 0 0 1 2.683-1.658h10.694a3 3 0 0 1 2.5 1.336l3.105 4.664h1.474a1 1 0 0 1 .709.294l1.991 2a1 1 0 0 1 .291.706v4a1 1 0 0 1 -1 1h-2.184a2.982 2.982 0 0 1 -5.632 0h-12.368a2.982 2.982 0 0 1 -5.632 0h-2.184a1 1 0 0 1 -1-1v-5a2 2 0 0 1 2-2z"></path><path d="m27 50a23 23 0 1 0 -23-23 23.026 23.026 0 0 0 23 23zm0-43a20 20 0 1 1 -20 20 20.023 20.023 0 0 1 20-20z"></path><path d="m58.113 58.113a5.016 5.016 0 0 0 0-7.077l-7.073-7.065-7.069 7.069 7.067 7.073a5.016 5.016 0 0 0 7.075 0z"></path><path d="m47.846 40.779a25.216 25.216 0 0 1 -7.067 7.067l1.779 1.78 7.068-7.068z"></path><path d="m50 8h2v-2h2v-2h-2v-2h-2v2h-2v2h2z"></path><path d="m57 27h2v-2h2v-2h-2v-2h-2v2h-2v2h2z"></path><path d="m35 56h-2v2h-2v2h2v2h2v-2h2v-2h-2z"></path><path d="m9 48h-2v2h-2v2h2v2h2v-2h2v-2h-2z"></path></svg>